# AST/ASF file generated using VICON BodyLanguage
# -----------------------------------------------
:version 1.10
:name VICON
:units
  mass 1.0
  length 0.45
  angle deg
:documentation
   .ast/.asf automatically generated from VICON data using
   VICON BodyBuilder and BodyLanguage model FoxedUp or BRILLIANT.MOD
:root
   order TX TY TZ RX RY RZ
   axis XYZ
   position 0 0 0  
   orientation 0 0 0 
:bonedata
  begin
     id 1 
     name lhipjoint
     direction 0.621036 -0.695554 0.361275 
     length 2.46325 
     axis 0 0 0  XYZ
  end
  begin
     id 2 
     name lfemur
     direction 0.34202 -0.939693 0  
     length 6.54784  
     axis 0 0 20  XYZ
    dof rx ry rz
    limits (-160.0 20.0)
           (-70.0 70.0)
           (-60.0 70.0)
  end
  begin
     id 3 
     name ltibia
     direction 0.34202 -0.939693 0   
     length 7.84737   
     axis 0 0 20   XYZ
    dof rx
    limits (-10.0 170.0)
  end
  begin
     id 4 
     name lfoot
     direction 0.0790693 -0.217241 0.97291   
     length 2.59747   
     axis -90 7.62852e-016 20   XYZ
    dof rx rz
    limits (-45.0 90.0)
           (-70.0 20.0)
  end
  begin
     id 5 
     name ltoes
     direction 1.53572e-011 -4.21898e-011 1   
     length 1.29919   
     axis -90 7.62852e-016 20   XYZ
    dof rx
    limits (-90.0 20.0)
  end
  begin
     id 6 
     name rhipjoint
     direction -0.602353 -0.708375 0.367935   
     length 2.41867  
     axis 0 0 0  XYZ 
  end
  begin
     id 7 
     name rfemur
     direction -0.34202 -0.939693 0   
     length 6.92065   
     axis 0 0 -20   XYZ
    dof rx ry rz
    limits (-160.0 20.0)
           (-70.0 70.0)
           (-70.0 60.0)
  end
  begin
     id 8 
     name rtibia
     direction -0.34202 -0.939693 0   
     length 7.88883   
     axis 0 0 -20   XYZ
    dof rx
    limits (-10.0 170.0)
 end
 begin
     id 9 
     name rfoot
     direction -0.0768692 -0.211196 0.974416   
     length 2.43714  
     axis -90 -7.62852e-016 -20   XYZ
    dof rx rz
    limits (-45.0 90.0)
           (-20.0 70.0)
  end
  begin
     id 10 
     name rtoes
     direction -1.53575e-011 -4.21933e-011 1   
     length 1.22113   
     axis -90 -7.62852e-016 -20   XYZ
    dof rx
    limits (-90.0 20.0)
  end
  begin
     id 11 
     name lowerback
     direction 0.0197937 0.98943 -0.143655   
     length 2.16931   
     axis 0 0 0   XYZ
    dof rx ry rz
    limits (-20.0 45.0)
           (-30.0 30.0)
           (-30.0 30.0)
  end
  begin
     id 12 
     name upperback
     direction -0.00183968 0.999975 0.00684288   
     length 2.17221   
     axis 0 0 0   XYZ
    dof rx ry rz
    limits (-20.0 45.0)
           (-30.0 30.0)
           (-30.0 30.0)
  end
  begin
     id 13 
     name thorax
     direction -0.00950244 0.997208 0.0740685   
     length 2.22549   
     axis 0 0 0   XYZ
    dof rx ry rz
    limits (-20.0 45.0)
           (-30.0 30.0)
           (-30.0 30.0)
  end
  begin
     id 14 
     name lowerneck
     direction 0.0218238 0.996215 0.0841425   
     length 1.77269   
     axis 0 0 0   XYZ
    dof rx ry rz
    limits (-20.0 45.0)
           (-30.0 30.0)
           (-30.0 30.0)
  end
  begin
     id 15 
     name upperneck
     direction -0.00430652 0.994214 -0.107332   
     length 1.76534   
     axis 0 0 0   XYZ
    dof rx ry rz
    limits (-20.0 45.0)
           (-30.0 30.0)
           (-30.0 30.0)
  end
  begin
     id 16
     name head
     direction -0.00328946 0.998959 -0.0454998  
     length 1.82634  
     axis 0 0 0   XYZ
    dof rx ry rz
    limits (-20.0 45.0)
           (-30.0 30.0)
           (-30.0 30.0)
  end
  begin
     id 17 
     name lclavicle
     direction 0.970962 0.239191 0.00450212  
     length 3.84872  
     axis 0 0 0   XYZ
    dof ry rz
    limits (-20.0 10.0)
           (0.0 20.0)
  end
  begin
     id 18 
     name lhumerus
     direction 1 -4.48966e-011 5.74696e-028   
     length 5.22771   
     axis 180 -30 -90   XYZ
    dof rx ry rz
    limits (-60.0 90.0)
           (-90.0 90.0)
           (-90.0 90.0)
  end
  begin
     id 19
     name lradius
     direction 1 -4.4896e-011 4.25109e-027   
     length 3.45251   
     axis 180 -30 -90   XYZ
    dof rx
    limits (-10.0 170.0)
  end
  begin
     id 20
     name lwrist
     direction 1 -4.48971e-011 1.15382e-027   
     length 1.72626   
     axis -5.52449e-016 90 90   XYZ
    dof ry
    limits (-180.0 0.0)
 end
  begin
     id 21 
     name lhand
     direction 1 -4.49034e-011 2.30765e-027   
     length 0.552119   
     axis -1.47248e-015 90 90   XYZ
    dof rx rz
    limits (-90.0 90.0)
           (-45.0 45.0)
  end
  begin
     id 22 
     name lfingers
     direction 1 -4.48951e-011 4.61529e-027   
     length 0.445133   
     axis -2.94495e-015 90 90   XYZ
    dof rx
    limits (0.0 90.0)
  end
  begin
     id 23
     name lthumb
     direction 0.707107 -6.34991e-011 0.707107   
     length 0.639124   
     axis -90 45 2.85299e-015   XYZ
    dof rx rz
    limits (-45.0 45.0)
           (-45.0 45.0)
  end
  begin
     id 24 
     name rclavicle
     direction -0.97424 0.222511 -0.0366699   
     length 3.73439  
     axis 0 0 0   XYZ 
    dof ry rz
    limits (-10.0 20.0)
           (-20.0 0.0)
  end
  begin
     id 25 
     name rhumerus
     direction -1 -4.48956e-011 -4.97258e-028  
     length 5.2398   
     axis 180 30 90   XYZ
    dof rx ry rz
    limits (-90.0 60.0)
           (-90.0 90.0)
           (-90.0 90.0)
  end
  begin
     id 26 
     name rradius
     direction -1 -4.4897e-011 -1.72611e-027   
     length 3.48042   
     axis 180 30 90   XYZ
    dof rx
    limits (-10.0 170.0)
  end
  begin
     id 27 
     name rwrist
     direction -1 -4.48976e-011 1.15382e-027   
     length 1.74021   
     axis -5.52449e-016 -90 -90   XYZ
    dof ry
    limits (-180.0 0.0)
  end
  begin
     id 28
     name rhand
     direction -1 -4.48963e-011 2.30765e-027   
     length 0.618713   
     axis -1.47248e-015 -90 -90   XYZ
    dof rx rz
    limits (-90.0 90.0)
           (-45.0 45.0)
  end
  begin
     id 29
     name rfingers
     direction -1 -4.4888e-011 4.61529e-027   
     length 0.498823   
     axis -2.94495e-015 -90 -90   XYZ
    dof rx
    limits (0.0 90.0)
  end
  begin
     id 30
     name rthumb
     direction -0.707107 -6.34968e-011 0.707107   
     length 0.716213   
     axis -90 -45 -2.85299e-015   XYZ
    dof rx rz
    limits (-45.0 45.0)
           (-45.0 45.0)
  end
:hierarchy
  begin
    root lhipjoint rhipjoint lowerback
    lhipjoint lfemur
    lfemur ltibia
    ltibia lfoot
    lfoot ltoes
    rhipjoint rfemur
    rfemur rtibia
    rtibia rfoot
    rfoot rtoes
    lowerback upperback
    upperback thorax
    thorax lowerneck lclavicle rclavicle
    lowerneck upperneck
    upperneck head
    lclavicle lhumerus
    lhumerus lradius
    lradius lwrist
    lwrist lhand lthumb
    lhand lfingers
    rclavicle rhumerus
    rhumerus rradius
    rradius rwrist
    rwrist rhand rthumb
    rhand rfingers
  end

#!OML:ASF G:\JayActor3\Patient Classification 1\Patient 1\Session 5\male.ASF
:FULLY-SPECIFIED
:DEGREES
96
root 49.8229 16.1651 -4.94671 125.627 -86.145 -127.485
lowerback 1.90276 -0.381021 3.06868
upperback 3.06004 -0.534197 -0.28734
thorax 2.04634 -0.216971 -2.01476
lowerneck -7.6862 0.115854 2.19315
upperneck 9.27577 -0.203318 0.538353
head 4.45003 -0.00907196 -0.22459
rclavicle -8.44835e-016 -5.56597e-015
rhumerus -30.3961 -6.78514 -87.8014
rradius 29.2136
rwrist 0.395752
rhand -18.8293 -9.61587
rfingers 7.12502
rthumb 7.46992 -39.464
lclavicle -8.44835e-016 -5.56597e-015
lhumerus -31.835 1.95016 85.7971
lradius 26.7435
lwrist 19.0207
lhand -19.5328 15.26
lfingers 7.12502
lthumb 6.79079 45.1311
rfemur -9.89067 6.60129 23.2198
rtibia 36.9086
rfoot -24.5477 -11.4693
rtoes 4.96182
lfemur -2.25266 7.15314 -16.7805
ltibia 25.2132
lfoot -18.9786 5.79709
ltoes -7.84981
97
root 49.826 16.1663 -4.95664 125.369 -86.1666 -127.178
lowerback 1.92202 -0.380015 3.07419
upperback 3.05866 -0.532284 -0.282866
thorax 2.03423 -0.21619 -2.01309
lowerneck -7.68014 0.111333 2.18646
upperneck 9.26225 -0.209394 0.550179
head 4.44381 -0.0118047 -0.219748
rclavicle -8.69683e-016 6.36111e-015
rhumerus -30.3957 -6.68975 -87.8362
rradius 29.2841
rwrist 0.334073
rhand -18.8203 -9.64325
rfingers 7.12502
rthumb 7.4786 -39.4911
lclavicle -8.69683e-016 6.36111e-015
lhumerus -31.8327 1.86408 85.8317
lradius 26.9474
lwrist 19.1233
lhand -19.5218 15.1872
lfingers 7.12502
lthumb 6.80148 45.058
rfemur -9.94056 6.62194 23.2532
rtibia 36.8808
rfoot -24.5847 -11.5296
rtoes 5.03073
lfemur -2.39494 7.12533 -16.7718
ltibia 25.3316
lfoot -18.9605 5.86019
ltoes -7.95244
98
root 49.8297 16.1671 -4.96657 125.161 -86.189 -126.924
lowerback 1.95412 -0.377128 3.07808
upperback 3.05519 -0.527352 -0.281429
thorax 2.01292 -0.214073 -2.01354
lowerneck -7.66717 0.106536 2.18197
upperneck 9.24242 -0.216352 0.566906
head 4.43388 -0.0147248 -0.213683
rclavicle -2.16178e-015 -5.1684e-015
rhumerus -30.3974 -6.60892 -87.8677
rradius 29.338
rwrist 0.289746
rhand -18.809 -9.69103
rfingers 7.12502
rthumb 7.48948 -39.5384
lclavicle -2.16178e-015 -5.1684e-015
lhumerus -31.8362 1.76039 85.8655
lradius 27.1612
lwrist 19.233
lhand -19.5094 15.1169
lfingers 7.12502
lthumb 6.81345 44.9873
rfemur -9.99101 6.64184 23.2825
rtibia 36.858
rfoot -24.6222 -11.5867
rtoes 5.08389
lfemur -2.53136 7.10798 -16.7646
ltibia 25.4413
lfoot -18.9356 5.92668
ltoes -8.10521
99
root 49.8338 16.1674 -4.97639 124.959 -86.2132 -126.681
lowerback 1.9955 -0.372478 3.0813
upperback 3.0539 -0.519852 -0.282081
thorax 1.98878 -0.210724 -2.01571
lowerneck -7.65639 0.0948972 2.1767
upperneck 9.22275 -0.232883 0.587461
head 4.42438 -0.0221945 -0.206787
rclavicle -5.14355e-015 -1.19271e-015
rhumerus -30.3903 -6.54581 -87.8953
rradius 29.371
rwrist 0.259802
rhand -18.7957 -9.7377
rfingers 7.12502
rthumb 7.50233 -39.5847
lclavicle -5.14355e-015 -1.19271e-015
lhumerus -31.8346 1.6472 85.8987
lradius 27.38
lwrist 19.3405
lhand -19.4916 15.0338
lfingers 7.12502
lthumb 6.83059 44.9036
rfemur -10.0415 6.65267 23.3068
rtibia 36.8407
rfoot -24.6599 -11.6304
rtoes 5.13162
lfemur -2.65946 7.09419 -16.7581
ltibia 25.5386
lfoot -18.9053 5.99372
ltoes -8.29142
100
root 49.8382 16.1675 -4.986 124.691 -86.2399 -126.374
lowerback 2.04103 -0.367809 3.08693
upperback 3.06049 -0.512492 -0.283893
thorax 1.97043 -0.207287 -2.02045
lowerneck -7.65978 0.084565 2.17492
upperneck 9.19292 -0.248264 0.609787
head 4.41411 -0.0288501 -0.199855
rclavicle 7.82715e-015 5.96354e-015
rhumerus -30.3638 -6.50132 -87.9183
rradius 29.382
rwrist 0.253399
rhand -18.7819 -9.79811
rfingers 7.12502
rthumb 7.51566 -39.6446
lclavicle 7.82715e-015 5.96354e-015
lhumerus -31.8185 1.52484 85.9332
lradius 27.6091
lwrist 19.4473
lhand -19.4733 14.9855
lfingers 7.12502
lthumb 6.8483 44.8548
rfemur -10.091 6.64775 23.3278
rtibia 36.8267
rfoot -24.6927 -11.6643
rtoes 5.15938
lfemur -2.77692 7.07248 -16.7493
ltibia 25.6229
lfoot -18.8801 6.0436
ltoes -8.4331
101
root 49.8427 16.1673 -4.99526 124.414 -86.2694 -126.064
lowerback 2.09023 -0.363371 3.09299
upperback 3.07029 -0.505442 -0.286663
thorax 1.9533 -0.203971 -2.02641
lowerneck -7.66037 0.0766374 2.17438
upperneck 9.15127 -0.260327 0.633476
head 4.39901 -0.0338349 -0.192465
rclavicle -3.05631e-015 -7.95139e-015
rhumerus -30.334 -6.46592 -87.9365
rradius 29.3782
rwrist 0.259933
rhand -18.7644 -9.86182
rfingers 7.12502
rthumb 7.53258 -39.7077
lclavicle -3.05631e-015 -7.95139e-015
lhumerus -31.7997 1.39592 85.9688
lradius 27.8473
lwrist 19.5561
lhand -19.4535 14.9608
lfingers 7.12502
lthumb 6.86734 44.8294
rfemur -10.1378 6.62377 23.3415
rtibia 36.8163
rfoot -24.7191 -11.6814
rtoes 5.16674
lfemur -2.87953 7.0375 -16.7415
ltibia 25.6917
lfoot -18.8672 6.07404
ltoes -8.49046
102
root 49.8473 16.1669 -5.00413 124.142 -86.2974 -125.759
lowerback 2.13892 -0.357295 3.1044
upperback 3.08201 -0.496237 -0.291055
thorax 1.93854 -0.199405 -2.03707
lowerneck -7.65489 0.0728585 2.18331
upperneck 9.09471 -0.266725 0.650765
head 4.37735 -0.0361249 -0.188553
rclavicle 3.62782e-015 0
rhumerus -30.3039 -6.44566 -87.9483
rradius 29.3683
rwrist 0.294346
rhand -18.714 -9.98416
rfingers 7.12502
rthumb 7.58119 -39.8283
lclavicle 3.62782e-015 0
lhumerus -31.7853 1.24266 86.0091
lradius 28.1031
lwrist 19.6832
lhand -19.444 14.9695
lfingers 7.12502
lthumb 6.87659 44.8379
rfemur -10.1857 6.58506 23.351
rtibia 36.8096
rfoot -24.7397 -11.6793
rtoes 5.17162
lfemur -2.96815 6.98902 -16.7315
ltibia 25.7433
lfoot -18.8698 6.08185
ltoes -8.44023
103
root 49.8517 16.1663 -5.01276 123.945 -86.3231 -125.53
lowerback 2.18731 -0.350152 3.11687
upperback 3.09186 -0.485524 -0.295733
thorax 1.92212 -0.194091 -2.04864
lowerneck -7.63761 0.0670458 2.1908
upperneck 9.03828 -0.275116 0.665138
head 4.35333 -0.0396763 -0.185473
rclavicle -9.69075e-016 5.96354e-015
rhumerus -30.2837 -6.43087 -87.9542
rradius 29.3575
rwrist 0.347047
rhand -18.6333 -10.1585
rfingers 7.12502
rthumb 7.65912 -39.9998
lclavicle -9.69075e-016 5.96354e-015
lhumerus -31.7834 1.07964 86.0509
lradius 28.3696
lwrist 19.8218
lhand -19.4483 15.0153
lfingers 7.12502
lthumb 6.87238 44.8838
rfemur -10.2355 6.53306 23.355
rtibia 36.8091
rfoot -24.7589 -11.6577
rtoes 5.16903
lfemur -3.04106 6.93468 -16.7208
ltibia 25.7755
lfoot -18.8848 6.07299
ltoes -8.3048
104
root 49.8559 16.1654 -5.02124 123.818 -86.3449 -125.374
lowerback 2.23239 -0.342323 3.12962
upperback 3.10039 -0.473957 -0.298976
thorax 1.90625 -0.18835 -2.05892
lowerneck -7.60669 0.0627042 2.1946
upperneck 8.97942 -0.280725 0.679484
head 4.32572 -0.0420903 -0.181551
rclavicle 3.65267e-015 -7.95139e-016
rhumerus -30.2723 -6.41846 -87.9533
rradius 29.3459
rwrist 0.412949
rhand -18.5271 -10.3773
rfingers 7.12502
rthumb 7.76158 -40.2148
lclavicle 3.65267e-015 -7.95139e-016
lhumerus -31.7893 0.919083 86.0921
lradius 28.6337
lwrist 19.9613
lhand -19.4629 15.0681
lfingers 7.12502
lthumb 6.85833 44.9371
rfemur -10.2875 6.47554 23.3567
rtibia 36.8168
rfoot -24.7845 -11.6174
rtoes 5.18236
lfemur -3.09781 6.88213 -16.7071
ltibia 25.7874
lfoot -18.9093 6.05137
ltoes -8.12293
105
root 49.8601 16.1641 -5.02978 123.696 -86.3655 -125.219
lowerback 2.27493 -0.335368 3.13841
upperback 3.10668 -0.46362 -0.298712
thorax 1.88947 -0.183366 -2.06339
lowerneck -7.57412 0.0567144 2.19079
upperneck 8.93034 -0.287911 0.694424
head 4.30131 -0.0454849 -0.176176
rclavicle -3.05631e-015 -7.95139e-016
rhumerus -30.2644 -6.40309 -87.9471
rradius 29.3318
rwrist 0.475804
rhand -18.4038 -10.6212
rfingers 7.12502
rthumb 7.8806 -40.4543
lclavicle -3.05631e-015 -7.95139e-016
lhumerus -31.7971 0.772736 86.1308
lradius 28.8849
lwrist 20.0938
lhand -19.4849 15.1241
lfingers 7.12502
lthumb 6.83704 44.9937
rfemur -10.3477 6.413 23.3586
rtibia 36.8352
rfoot -24.821 -11.5686
rtoes 5.20499
lfemur -3.14679 6.83375 -16.691
ltibia 25.7785
lfoot -18.9315 6.03484
ltoes -7.9675
